<svg width="14" height="13" viewBox="0 0 14 13" fill="none" xmlns="http://www.w3.org/2000/svg">
<path d="M0.5 6.56348C0.5 8.34717 1.22363 9.96582 2.38525 11.1401C2.46777 11.2163 2.55664 11.2163 2.62646 11.1274L2.91211 10.8101C2.98828 10.7212 2.98193 10.645 2.90576 10.5625C1.90283 9.52783 1.27441 8.1123 1.27441 6.56348C1.27441 3.44043 3.86426 0.844238 7 0.844238C10.1357 0.844238 12.7256 3.44043 12.7256 6.56348C12.7256 8.1123 12.0972 9.52783 11.0942 10.5625C11.0181 10.645 11.0117 10.7212 11.0879 10.8101L11.3735 11.1274C11.4434 11.2163 11.5322 11.2163 11.6147 11.1338C12.7764 9.96582 13.5 8.34717 13.5 6.56348C13.5 3.00244 10.5864 0.0634766 7 0.0634766C3.41357 0.0634766 0.5 3.00244 0.5 6.56348ZM2.34717 6.56348C2.34717 7.79492 2.82324 8.90576 3.61035 9.74365C3.69287 9.83252 3.78174 9.82617 3.85791 9.74365L4.14355 9.42627C4.22607 9.34375 4.21338 9.26758 4.13721 9.17871C3.50879 8.48682 3.12793 7.57275 3.12793 6.56348C3.12793 4.44971 4.87354 2.69141 7 2.69141C9.12646 2.69141 10.8721 4.44971 10.8721 6.56348C10.8721 7.57275 10.4912 8.48682 9.86279 9.17236C9.78662 9.26123 9.77393 9.34375 9.85645 9.41992L10.1484 9.74365C10.2183 9.82617 10.3135 9.83252 10.3896 9.74365C11.1704 8.90576 11.6528 7.79492 11.6528 6.56348C11.6528 4.01172 9.56445 1.91064 7 1.91064C4.43555 1.91064 2.34717 4.01172 2.34717 6.56348ZM4.19434 6.56348C4.19434 7.23633 4.4292 7.85205 4.83545 8.34717C4.90527 8.42969 4.99414 8.42969 5.07666 8.34082L5.375 8.03613C5.45117 7.95361 5.44482 7.87109 5.3877 7.78223C5.12744 7.4458 4.9751 7.02051 4.9751 6.56348C4.9751 5.45898 5.89551 4.53857 7 4.53857C8.10449 4.53857 9.0249 5.45898 9.0249 6.56348C9.0249 7.02051 8.87256 7.4458 8.6123 7.78223C8.54883 7.87109 8.54248 7.95361 8.625 8.03613L8.92334 8.34717C8.99951 8.42969 9.09473 8.43604 9.16455 8.34082C9.5708 7.85205 9.80566 7.23633 9.80566 6.56348C9.80566 5.02734 8.54248 3.75781 7 3.75781C5.45752 3.75781 4.19434 5.02734 4.19434 6.56348ZM2.89307 12.3271C2.69629 12.5366 2.81689 12.854 3.11523 12.854H10.8721C11.1704 12.854 11.291 12.5366 11.1006 12.3271L7.2666 7.9917C7.11426 7.83301 6.87305 7.83301 6.7207 7.9917L2.89307 12.3271Z" fill="white" fill-opacity="1"/>
</svg>
