<svg width="18" height="12" viewBox="0 0 18 12" fill="none" xmlns="http://www.w3.org/2000/svg">
<path d="M17.2646 5.79834C17.2646 3.67188 16.4648 1.72314 15.0811 0.275879C14.8525 0.034668 14.5415 0.0600586 14.3638 0.256836C14.1797 0.459961 14.2178 0.745605 14.4336 0.974121C15.646 2.24365 16.3125 3.94482 16.3125 5.79834C16.3125 7.65186 15.646 9.35303 14.4336 10.6226C14.2178 10.8447 14.1797 11.1367 14.3638 11.3335C14.5415 11.5366 14.8525 11.562 15.0811 11.3208C16.4648 9.87354 17.2646 7.9248 17.2646 5.79834ZM0.729004 5.79834C0.729004 7.9248 1.52881 9.87354 2.9126 11.3208C3.14111 11.562 3.45215 11.5366 3.62988 11.3335C3.81396 11.1367 3.77588 10.8447 3.56006 10.6226C2.34131 9.35303 1.68115 7.65186 1.68115 5.79834C1.68115 3.94482 2.34131 2.24365 3.56006 0.974121C3.77588 0.745605 3.81396 0.459961 3.62988 0.256836C3.45215 0.0600586 3.14111 0.034668 2.9126 0.275879C1.52881 1.72314 0.729004 3.67188 0.729004 5.79834ZM3.00146 5.79834C3.00146 7.30273 3.54102 8.70557 4.51221 9.75293C4.73438 10.0005 5.05811 10.0068 5.24854 9.78467C5.43262 9.5752 5.38184 9.30225 5.16602 9.06738C4.37891 8.18506 3.94727 7.04248 3.94727 5.79834C3.94727 4.5542 4.37891 3.41162 5.16602 2.5293C5.38184 2.29443 5.43262 2.02148 5.24854 1.80566C5.05811 1.58984 4.73438 1.58984 4.51221 1.8374C3.54102 2.89111 3.00146 4.2876 3.00146 5.79834ZM14.9922 5.79834C14.9922 4.2876 14.4526 2.89111 13.4814 1.8374C13.2593 1.58984 12.9355 1.58984 12.7451 1.80566C12.5547 2.02148 12.6118 2.29443 12.8213 2.5293C13.6147 3.41162 14.0464 4.5542 14.0464 5.79834C14.0464 7.04248 13.6147 8.18506 12.8213 9.06738C12.6118 9.30225 12.5547 9.5752 12.7451 9.78467C12.9355 10.0068 13.2593 10.0005 13.4814 9.75293C14.4526 8.70557 14.9922 7.30273 14.9922 5.79834ZM5.26758 5.79834C5.26758 6.64893 5.55957 7.44873 6.06738 8.07715C6.27686 8.34375 6.62598 8.34375 6.81641 8.12793C7.00684 7.91211 6.92432 7.6582 6.74023 7.39795C6.39746 6.96631 6.21973 6.40771 6.21973 5.79834C6.21973 5.18896 6.39746 4.63037 6.74023 4.19238C6.92432 3.93848 7.00684 3.68457 6.81641 3.46875C6.62598 3.25293 6.27686 3.25293 6.06738 3.51318C5.55957 4.1416 5.26758 4.94141 5.26758 5.79834ZM12.7261 5.79834C12.7261 4.94141 12.4341 4.1416 11.9263 3.51318C11.7168 3.25293 11.3677 3.25293 11.1772 3.46875C10.9868 3.68457 11.063 3.93848 11.2534 4.19238C11.5962 4.63037 11.7739 5.18896 11.7739 5.79834C11.7739 6.40771 11.5962 6.96631 11.2534 7.39795C11.063 7.6582 10.9868 7.91211 11.1772 8.12793C11.3677 8.34375 11.7168 8.34375 11.9263 8.07715C12.4341 7.44873 12.7261 6.64893 12.7261 5.79834ZM8.99365 7.27734C9.78711 7.27734 10.4727 6.60449 10.4727 5.79199C10.4727 4.97949 9.78711 4.31299 8.99365 4.31299C8.2002 4.31299 7.521 4.97949 7.521 5.79199C7.521 6.60449 8.2002 7.27734 8.99365 7.27734Z" fill="white" fill-opacity="1"/>
</svg>
