<svg width="21" height="11" viewBox="0 0 21 11" fill="none" xmlns="http://www.w3.org/2000/svg">
<path d="M11.022 1.02539C11.022 0.602051 10.6733 0.245117 10.25 0.245117C9.82666 0.245117 9.46973 0.602051 9.46973 1.02539V3.52393C9.46973 3.93896 9.82666 4.2876 10.25 4.2876C10.6733 4.2876 11.022 3.93896 11.022 3.52393V1.02539ZM6.0249 5.94775C6.32373 5.64893 6.31543 5.16748 6.0249 4.86865L4.26514 3.09229C3.97461 2.80176 3.47656 2.79346 3.17773 3.08398C2.87891 3.38281 2.87891 3.87256 3.18604 4.17139L4.9375 5.94775C5.22803 6.25488 5.72607 6.23828 6.0249 5.94775ZM14.3755 6.03906C14.666 6.33789 15.1724 6.33789 15.4629 6.03906L17.231 4.2627C17.5215 3.96387 17.5298 3.47412 17.231 3.17529C16.9404 2.88477 16.4507 2.87646 16.1436 3.17529L14.3755 4.95166C14.0684 5.25049 14.0684 5.74023 14.3755 6.03906ZM1.10254 9.39258C0.695801 9.39258 0.338867 9.74121 0.338867 10.1562C0.338867 10.5796 0.695801 10.9365 1.10254 10.9365H3.60938C4.03271 10.9365 4.38965 10.5796 4.38965 10.1562C4.38965 9.74121 4.03271 9.39258 3.60938 9.39258H1.10254ZM16.1187 10.1562C16.1187 10.5796 16.4673 10.9365 16.8906 10.9365H19.3892C19.8042 10.9365 20.1611 10.5796 20.1611 10.1562C20.1611 9.74121 19.8042 9.39258 19.3892 9.39258H16.8906C16.4673 9.39258 16.1187 9.74121 16.1187 10.1562ZM7.23682 10.9199H13.2549C13.6616 10.9199 14.0103 10.5796 14.0103 10.1812C14.0103 9.77441 13.6616 9.44238 13.2549 9.44238H7.23682C6.82178 9.44238 6.47314 9.77441 6.47314 10.1812C6.47314 10.5796 6.82178 10.9199 7.23682 10.9199Z" fill="white" fill-opacity="0.55"/>
</svg>
