<svg width="28" height="28" viewBox="0 0 28 28" fill="none" xmlns="http://www.w3.org/2000/svg">
<path d="M0 14C0 6.26801 6.26801 0 14 0V0C21.732 0 28 6.26801 28 14V14C28 21.732 21.732 28 14 28V28C6.26801 28 0 21.732 0 14V14Z" fill="#5E5CE6"/>
<path d="M17.5547 16.001C14.1206 16.001 11.9243 13.8491 11.9243 10.4087C11.9243 9.69775 12.0957 8.68213 12.3242 8.15527C12.3813 8.00928 12.394 7.92041 12.394 7.85693C12.394 7.68555 12.2671 7.49512 12.0195 7.49512C11.9497 7.49512 11.7974 7.51416 11.6577 7.56494C9.30908 8.50439 7.73486 11.0308 7.73486 13.6904C7.73486 17.4229 10.5786 20.0889 14.2983 20.0889C17.0342 20.0889 19.4019 18.4321 20.189 16.3628C20.2461 16.2168 20.2588 16.0645 20.2588 16.0073C20.2588 15.7725 20.062 15.6138 19.8843 15.6138C19.8018 15.6138 19.7319 15.6328 19.6113 15.6709C19.1226 15.8296 18.3354 16.001 17.5547 16.001Z" fill="white"/>
</svg>
