<svg width="19" height="18" viewBox="0 0 19 18" fill="none" xmlns="http://www.w3.org/2000/svg">
<path d="M3.57422 13.6211H4.99365V14.8911C4.99365 16.6011 5.85693 17.4644 7.6001 17.4644H15.9341C17.6606 17.4644 18.5322 16.6011 18.5322 14.8911V6.49072C18.5322 4.78076 17.6606 3.91748 15.9341 3.91748H14.5063V2.64746C14.5063 0.9375 13.6348 0.0742188 11.9082 0.0742188H3.57422C1.83105 0.0742188 0.967773 0.9375 0.967773 2.64746V11.0479C0.967773 12.7578 1.83105 13.6211 3.57422 13.6211ZM3.59082 12.2847C2.76074 12.2847 2.3042 11.8364 2.3042 10.9731V2.72217C2.3042 1.85889 2.76074 1.41064 3.59082 1.41064H11.8833C12.7051 1.41064 13.1699 1.85889 13.1699 2.72217V3.91748H7.6001C5.85693 3.91748 4.99365 4.77246 4.99365 6.49072V12.2847H3.59082ZM7.6167 16.1279C6.79492 16.1279 6.33008 15.6797 6.33008 14.8164V6.56543C6.33008 5.70215 6.79492 5.25391 7.6167 5.25391H15.9092C16.731 5.25391 17.1958 5.70215 17.1958 6.56543V14.8164C17.1958 15.6797 16.731 16.1279 15.9092 16.1279H7.6167Z" fill="white" fill-opacity="0.55"/>
</svg>
