

<svg width="25" height="31" viewBox="0 0 25 31" fill="none" xmlns="http://www.w3.org/2000/svg">
<g filter="url(#filter0_i_502_19203)">
<path d="M21.3961 7.89553C21.8217 7.8003 22.2136 7.96576 22.3819 8.31352V19.0768C22.3299 19.3452 22.1142 19.7356 21.6059 19.9128C20.8925 20.1481 20.518 20.2193 20.0049 20.3167C19.8273 20.3505 19.6332 20.3873 19.4027 20.4353C18.7101 20.5314 17.1291 20.9555 16.2552 21.7937C15.4997 22.6063 15.4402 23.8254 15.4158 24.4062C15.4625 26.3854 17.2568 27.5923 19.1928 27.5411C21.0424 27.4994 21.9152 27.0157 22.8649 26.1826C23.8455 25.3126 24.019 24.2073 24.019 23.1522V18.8678V8.00003V1.73014C24.019 1.03131 23.4653 0.576271 22.76 0.68517L8.49136 3.50663C7.77715 3.59816 7.3895 4.26514 7.39873 4.96958V11.0305V21.6892C7.39748 21.6851 7.39644 21.6945 7.3942 21.7148C7.37718 21.8698 7.29033 22.6609 6.49792 22.9432C5.76029 23.1779 5.38221 23.2463 4.81722 23.3486C4.63393 23.3818 4.43102 23.4186 4.18979 23.4657C3.58553 23.5558 2.00458 23.9799 1.14719 24.8242C0.375084 25.6307 0.31564 26.8498 0.307861 27.4366C0.33802 29.4099 2.13224 30.6167 3.97992 30.5716C5.91787 30.5239 6.79065 30.0401 7.75694 29.2131C8.72098 28.3371 9.0192 27.2317 9.0358 26.1826V21.6892V10.926C9.15369 10.6319 9.37982 10.4152 9.66531 10.4035L21.3961 7.89553Z" fill="white"/>
</g>
<mask id="mask0_502_19203" style="mask-type:alpha" maskUnits="userSpaceOnUse" x="0" y="0" width="25" height="31">
<path d="M21.3961 7.89553C21.8217 7.8003 22.2136 7.96576 22.3819 8.31352V19.0768C22.3299 19.3452 22.1142 19.7356 21.6059 19.9128C20.8925 20.1481 20.518 20.2193 20.0049 20.3167C19.8273 20.3505 19.6332 20.3873 19.4027 20.4353C18.7101 20.5314 17.1291 20.9555 16.2552 21.7937C15.4997 22.6063 15.4402 23.8254 15.4158 24.4062C15.4625 26.3854 17.2568 27.5923 19.1928 27.5411C21.0424 27.4994 21.9152 27.0157 22.8649 26.1826C23.8455 25.3126 24.019 24.2073 24.019 23.1522V18.8678V8.00003V1.73014C24.019 1.03131 23.4653 0.576271 22.76 0.68517L8.49136 3.50663C7.77715 3.59816 7.3895 4.26514 7.39873 4.96958V11.0305V21.6892C7.39748 21.6851 7.39644 21.6945 7.3942 21.7148C7.37718 21.8698 7.29033 22.6609 6.49792 22.9432C5.76029 23.1779 5.38221 23.2463 4.81722 23.3486C4.63393 23.3818 4.43102 23.4186 4.18979 23.4657C3.58553 23.5558 2.00458 23.9799 1.14719 24.8242C0.375084 25.6307 0.31564 26.8498 0.307861 27.4366C0.33802 29.4099 2.13224 30.6167 3.97992 30.5716C5.91787 30.5239 6.79065 30.0401 7.75694 29.2131C8.72098 28.3371 9.0192 27.2317 9.0358 26.1826V21.6892V10.926C9.15369 10.6319 9.37982 10.4152 9.66531 10.4035L21.3961 7.89553Z" fill="white"/>
</mask>
<g mask="url(#mask0_502_19203)">
</g>
<defs>
<filter id="filter0_i_502_19203" x="0.307861" y="0.669098" width="23.7112" height="30.3926" filterUnits="userSpaceOnUse" color-interpolation-filters="sRGB">
<feFlood flood-opacity="0" result="BackgroundImageFix"/>
<feBlend mode="normal" in="SourceGraphic" in2="BackgroundImageFix" result="shape"/>
<feColorMatrix in="SourceAlpha" type="matrix" values="0 0 0 0 0 0 0 0 0 0 0 0 0 0 0 0 0 0 127 0" result="hardAlpha"/>
<feOffset dy="0.488889"/>
<feGaussianBlur stdDeviation="0.244444"/>
<feComposite in2="hardAlpha" operator="arithmetic" k2="-1" k3="1"/>
<feColorMatrix type="matrix" values="0 0 0 0 0.358299 0 0 0 0 0 0 0 0 0 0 0 0 0 0.67152 0"/>
<feBlend mode="normal" in2="shape" result="effect1_innerShadow_502_19203"/>
</filter>
</defs>
</svg>
