<svg width="6" height="9" viewBox="0 0 6 9" fill="none" xmlns="http://www.w3.org/2000/svg">
<path d="M5.13965 4.34961C5.13477 4.17871 5.07129 4.03223 4.93945 3.90039L1.14062 0.18457C1.02832 0.0771484 0.896484 0.0185547 0.735352 0.0185547C0.408203 0.0185547 0.154297 0.272461 0.154297 0.599609C0.154297 0.755859 0.217773 0.902344 0.330078 1.01465L3.74805 4.34961L0.330078 7.68457C0.217773 7.79688 0.154297 7.93848 0.154297 8.09961C0.154297 8.42676 0.408203 8.68066 0.735352 8.68066C0.891602 8.68066 1.02832 8.62207 1.14062 8.51465L4.93945 4.79395C5.07617 4.66699 5.13965 4.52051 5.13965 4.34961Z" fill="white" fill-opacity="0.26"/>
</svg>
