<svg width="16" height="12" viewBox="0 0 16 12" fill="red" xmlns="http://www.w3.org/2000/svg">
<path d="M1.65234 4.9668C1.77295 5.09375 1.95703 5.0874 2.07764 4.96045C3.63916 3.30371 5.6958 2.42773 8 2.42773C10.3169 2.42773 12.3862 3.31006 13.9351 4.9668C14.0493 5.08105 14.2271 5.08105 14.3477 4.9541L15.2236 4.07812C15.3315 3.96387 15.3315 3.82422 15.2427 3.71631C13.751 1.87549 10.9453 0.523438 8 0.523438C5.06104 0.523438 2.24268 1.87549 0.757324 3.71631C0.668457 3.82422 0.668457 3.96387 0.776367 4.07812L1.65234 4.9668ZM4.29297 7.62012C4.42627 7.75342 4.59766 7.73438 4.72461 7.59473C5.48633 6.75049 6.73047 6.13477 8 6.14111C9.28857 6.13477 10.5264 6.76953 11.3008 7.61377C11.4214 7.74707 11.5864 7.74707 11.7134 7.61377L12.6973 6.63623C12.8052 6.53467 12.8115 6.39502 12.7163 6.28076C11.7578 5.10645 9.98047 4.22412 8 4.22412C6.01953 4.22412 4.24854 5.10645 3.28369 6.28076C3.19482 6.39502 3.20117 6.52197 3.30908 6.63623L4.29297 7.62012ZM8 11.0732C8.13965 11.0732 8.26025 11.0098 8.50781 10.7686L10.0566 9.2832C10.1582 9.18799 10.1772 9.04834 10.0947 8.93408C9.67578 8.40088 8.89502 7.9375 8 7.9375C7.08594 7.9375 6.29883 8.41992 5.89258 8.97217C5.82275 9.07373 5.85449 9.18799 5.94971 9.2832L7.49219 10.7686C7.73975 11.0034 7.86035 11.0732 8 11.0732Z" fill="white"/>
</svg>
